<?xml version="1.0" standalone="no"?>
<!DOCTYPE svg PUBLIC "-//W3C//DTD SVG 20010904//EN"
 "http://www.w3.org/TR/2001/REC-SVG-20010904/DTD/svg10.dtd">
<svg version="1.0" xmlns="http://www.w3.org/2000/svg"
 width="1920.000000pt" height="1080.000000pt" viewBox="0 0 1920.000000 1080.000000"
 preserveAspectRatio="xMidYMid meet">
<metadata>
Created by potrace 1.16, written by Peter Selinger 2001-2019
</metadata>
<g transform="translate(0.000000,1080.000000) scale(0.100000,-0.100000)"
fill="#000000" stroke="none">
<path d="M9478 10065 c-3 -3 -70 -8 -149 -11 -242 -10 -317 -17 -349 -35 -14
-8 46 -14 110 -12 216 9 350 10 375 1 19 -7 46 -7 75 -1 37 7 44 13 42 29 -2
10 -5 20 -5 20 -7 6 -94 13 -99 9z"/>
<path d="M9600 10060 c-9 -6 -7 -13 9 -29 23 -23 46 -27 56 -11 9 15 26 12 64
-11 56 -34 25 -40 -164 -36 -93 2 -150 2 -125 0 25 -2 72 -10 105 -17 33 -8
87 -20 120 -26 81 -16 85 -18 85 -31 0 -8 -34 -9 -124 -5 -118 6 -124 5 -129
-14 -3 -12 -14 -20 -27 -20 -11 0 -18 -4 -15 -10 3 -5 47 -10 96 -10 65 0 88
-3 83 -11 -9 -16 -237 -6 -242 10 -6 17 -42 13 -49 -5 -3 -8 -16 -20 -29 -25
-17 -6 -24 -16 -24 -34 0 -29 -5 -29 -85 -13 -53 10 -59 10 -72 -7 -7 -11 -12
-24 -10 -29 3 -10 170 -11 314 -2 47 4 89 0 120 -9 71 -22 108 -19 139 10 40
37 63 31 72 -20 3 -19 3 -32 1 -102 0 -16 0 -154 2 -309 1 -155 -2 -287 -7
-295 -5 -8 -7 -21 -6 -30 2 -9 -4 -19 -13 -22 -8 -4 -15 -13 -15 -21 0 -25
-23 -67 -34 -63 -15 5 -7 186 10 219 16 31 19 120 5 147 -6 11 -6 34 0 61 11
48 0 155 -11 110 -8 -32 -53 -36 -59 -5 -4 26 -20 35 -40 25 -9 -4 -29 -13
-45 -19 -24 -10 -26 -14 -15 -27 10 -13 10 -17 -2 -25 -22 -14 -27 -11 -41 19
-13 26 -16 27 -95 27 -45 0 -85 4 -89 8 -11 10 -42 9 -49 -3 -3 -6 -3 -19 0
-31 6 -17 12 -19 49 -14 34 5 44 4 49 -9 8 -21 4 -23 -91 -31 -57 -5 -85 -12
-89 -21 -7 -18 -22 -18 -42 -1 -9 7 -41 19 -71 26 -30 7 -65 19 -77 27 -12 8
-69 20 -125 28 -108 14 -163 30 -154 44 3 5 -49 9 -115 10 -66 0 -123 3 -126
6 -4 3 8 6 25 6 25 0 32 4 32 20 0 17 7 20 50 20 28 0 50 5 50 10 0 6 -10 10
-21 10 -21 0 -21 1 5 27 14 14 24 28 21 31 -3 3 -40 9 -82 14 -43 5 -99 11
-125 14 -55 7 -153 -18 -166 -43 -6 -10 -16 -14 -27 -9 -17 6 -17 7 1 21 17
13 15 14 -27 15 -32 0 -51 6 -63 19 -11 12 -14 21 -7 26 6 3 11 13 11 22 0 12
-8 14 -32 10 -18 -2 -40 -1 -48 3 -27 14 -66 -1 -84 -31 -14 -23 -24 -29 -44
-27 -36 4 -40 31 -7 46 37 17 29 46 -13 50 -33 3 -66 -13 -57 -28 3 -4 -6 -11
-20 -14 -16 -4 -25 -13 -25 -25 0 -12 -11 -23 -31 -30 -31 -11 -77 -15 -51 -4
6 2 12 9 12 15 0 6 11 19 25 30 16 13 25 29 25 48 0 31 24 45 56 34 19 -7 19
-7 0 14 -11 12 -29 22 -40 22 -29 -1 -65 -33 -63 -56 2 -24 -33 -30 -74 -14
-33 14 -36 26 -13 51 9 10 14 25 11 34 -7 17 -52 21 -62 5 -3 -5 -1 -10 4 -10
24 0 9 -16 -29 -33 -52 -22 -51 -22 -89 12 l-32 29 28 6 c15 4 39 15 53 26 21
16 23 20 8 25 -9 4 -25 2 -36 -4 -12 -6 -27 -8 -36 -5 -9 4 -25 -5 -40 -21
-22 -24 -30 -26 -83 -23 -46 2 -58 0 -58 -12 0 -8 -15 -20 -33 -26 -18 -5 -30
-13 -26 -17 9 -8 -40 -27 -72 -27 -28 0 -31 16 -8 42 16 16 15 18 -1 25 -11 4
-31 -1 -48 -10 -16 -10 -32 -15 -36 -12 -4 2 -24 0 -44 -6 -25 -7 -37 -16 -39
-32 -3 -19 -11 -23 -63 -28 -70 -8 -91 -15 -99 -35 -3 -9 -20 -14 -46 -14 -33
0 -48 -7 -83 -39 -37 -34 -51 -40 -104 -46 -41 -5 -68 -14 -79 -26 -9 -11 -24
-19 -32 -19 -8 0 -30 -13 -49 -30 -18 -16 -45 -30 -58 -30 -18 0 -30 -11 -47
-40 -13 -22 -28 -40 -34 -40 -6 0 -26 -13 -44 -30 -18 -16 -41 -30 -50 -30
-18 0 -40 -19 -40 -35 0 -6 12 -18 28 -28 l27 -18 -42 6 c-27 4 -43 3 -43 -4
0 -5 -16 -13 -35 -17 -21 -4 -37 -13 -40 -25 -3 -10 -16 -21 -28 -25 -30 -10
-77 -45 -77 -59 0 -7 -9 -20 -20 -30 -15 -14 -25 -15 -49 -7 -33 12 -74 -8
-65 -32 3 -8 -9 -20 -33 -31 -35 -17 -36 -19 -15 -24 25 -6 27 -27 2 -24 -8 2
-27 0 -42 -3 -23 -5 -27 -10 -22 -28 7 -30 -47 -71 -75 -56 -11 5 -34 10 -52
10 l-33 0 30 -28 c16 -16 36 -31 44 -34 10 -4 6 -8 -13 -13 -18 -5 -33 -3 -40
4 -6 6 -20 11 -32 11 -31 0 -33 -57 -2 -62 14 -2 22 -10 22 -23 0 -15 -9 -21
-38 -26 -48 -8 -57 -17 -32 -35 19 -14 19 -16 3 -28 -10 -7 -15 -16 -11 -19 3
-4 -10 -14 -30 -22 -42 -17 -44 -23 -20 -40 16 -12 16 -16 -5 -59 -22 -42 -26
-46 -61 -46 -20 0 -46 -7 -57 -15 -18 -14 -18 -16 -1 -29 30 -24 19 -33 -50
-39 -54 -5 -71 -11 -83 -28 -8 -12 -26 -32 -39 -45 -21 -21 -23 -28 -13 -49
10 -22 18 -25 69 -26 91 -2 112 -4 120 -13 13 -12 -19 -25 -42 -16 -24 9 -55
-4 -55 -25 0 -8 -8 -18 -17 -24 -25 -14 -12 -22 48 -30 59 -7 72 -22 34 -39
-30 -14 -32 -33 -5 -50 35 -21 25 -48 -27 -73 -27 -12 -59 -27 -72 -33 -19 -9
-25 -7 -37 9 -14 19 -13 20 13 25 43 8 40 34 -7 55 -22 10 -45 24 -51 32 -16
18 -59 17 -59 -2 0 -9 7 -18 15 -21 12 -5 13 -10 4 -20 -6 -8 -18 -14 -25 -14
-25 0 -15 -21 15 -31 16 -6 32 -17 35 -25 3 -8 13 -14 22 -14 18 0 84 -62 84
-78 0 -27 33 -68 62 -78 25 -8 33 -17 35 -37 1 -15 -2 -29 -8 -32 -19 -12 -8
-25 24 -26 19 -1 24 -3 12 -6 -11 -2 -30 -9 -42 -15 -31 -15 -57 -4 -44 19 8
15 2 22 -42 46 -32 17 -42 26 -26 23 15 -3 34 1 45 9 18 14 17 14 -12 15 -17
0 -49 -7 -70 -16 l-38 -16 46 -43 c26 -24 53 -45 60 -48 15 -6 -72 -92 -103
-102 -10 -4 -19 -10 -19 -15 0 -24 67 -20 128 7 32 14 35 14 58 -8 47 -44 16
-74 -64 -63 -36 4 -57 2 -81 -11 -45 -23 -34 -39 34 -48 54 -8 60 -7 76 14 16
21 20 22 46 10 l28 -13 -30 -13 c-33 -14 -24 -22 30 -27 27 -3 30 -6 30 -38 0
-54 36 -85 98 -82 45 2 49 0 44 -18 -4 -14 3 -29 21 -45 23 -22 24 -25 8 -31
-10 -4 -33 -2 -52 4 -36 11 -104 -1 -104 -18 0 -5 18 -14 40 -20 28 -8 38 -15
34 -25 -4 -8 -10 -15 -14 -15 -5 0 -12 -9 -15 -21 -4 -11 -23 -27 -42 -35 -27
-12 -32 -18 -23 -29 17 -20 -81 -73 -153 -81 -62 -7 -69 -13 -72 -55 -3 -37
-27 -87 -44 -94 -7 -3 -39 0 -69 7 -46 11 -59 19 -75 46 -22 38 -39 40 -59 10
-14 -21 -18 -22 -50 -10 -42 15 -65 15 -73 2 -10 -16 28 -89 46 -90 8 0 26
-11 39 -25 23 -25 54 -33 64 -16 3 4 -6 19 -19 31 -28 27 -32 45 -10 54 23 8
45 -4 51 -29 3 -13 14 -31 25 -41 38 -34 17 -77 -27 -53 -29 15 -38 8 -30 -25
5 -19 16 -28 46 -36 50 -13 51 -30 3 -76 -63 -59 -77 -66 -175 -73 -91 -7 -98
-14 -28 -25 54 -10 64 -19 53 -52 -7 -21 -18 -30 -39 -34 -24 -5 -26 -7 -10
-13 15 -6 16 -10 6 -22 -11 -13 -8 -15 19 -15 45 0 40 -40 -6 -54 -32 -10 -29
-36 5 -38 15 0 33 -2 41 -2 16 -1 26 -66 11 -66 -6 0 -10 4 -10 10 0 14 -83
35 -88 21 -2 -6 -17 -11 -34 -11 -27 0 -30 -3 -24 -24 9 -38 -9 -40 -44 -5
-24 24 -34 29 -43 20 -15 -15 2 -43 30 -51 19 -5 73 -60 73 -74 0 -4 -12 -18
-27 -31 -23 -19 -35 -23 -65 -18 -30 4 -38 2 -38 -10 0 -19 -16 -25 -95 -33
-73 -8 -76 -13 -45 -73 22 -44 32 -50 76 -44 17 3 35 0 38 -6 4 -6 19 -11 33
-11 15 0 23 -3 19 -7 -4 -5 -40 -8 -78 -8 -81 0 -95 -13 -43 -38 48 -23 46
-45 -6 -53 -26 -5 -38 -11 -35 -19 10 -26 -81 -84 -132 -85 -22 0 -73 -40 -66
-52 8 -13 51 -2 85 23 33 23 67 24 97 3 l23 -16 -46 -29 c-37 -23 -45 -33 -40
-49 6 -19 3 -20 -61 -18 -46 2 -68 -1 -71 -9 -3 -7 16 -34 41 -61 l46 -49 -23
-20 c-12 -11 -44 -26 -72 -32 -27 -7 -58 -20 -69 -29 -12 -11 -37 -17 -75 -18
-75 -2 -81 -2 -81 -13 0 -16 38 -23 128 -26 79 -2 86 -4 115 -34 23 -22 27
-31 16 -31 -9 0 -22 -6 -28 -14 -9 -11 3 -14 67 -19 52 -5 92 -14 124 -31 25
-13 61 -29 80 -37 32 -12 30 -13 -56 -19 -69 -4 -91 -10 -101 -24 -12 -16 -9
-22 33 -58 49 -42 91 -88 92 -100 0 -17 -47 -30 -138 -39 -53 -5 -122 -14
-152 -20 -30 -6 -88 -10 -129 -9 -44 1 -84 -4 -98 -11 -18 -10 -26 -10 -35 -1
-16 16 -188 4 -206 -15 -8 -8 -36 -12 -75 -12 -34 0 -78 -6 -97 -14 -19 -8
-96 -20 -170 -26 -148 -13 -226 -27 -237 -44 -4 -7 17 -8 68 -4 41 4 146 12
233 17 141 10 161 9 175 -5 14 -14 14 -17 1 -25 -8 -5 -23 -10 -32 -10 -23 0
-31 -15 -14 -30 16 -13 43 -3 66 24 7 9 24 16 39 16 14 0 72 7 128 17 108 18
115 16 128 -26 7 -23 6 -24 -40 -19 -45 6 -46 5 -41 -18 5 -20 1 -25 -26 -32
-36 -10 -34 -12 46 -34 73 -20 111 -85 60 -105 -10 -4 -22 0 -29 10 -7 10 -24
17 -38 17 -17 0 -28 7 -32 20 -12 37 -61 23 -127 -38 -36 -33 -35 -47 2 -62
43 -18 38 -43 -10 -58 -22 -6 -48 -12 -59 -12 -33 0 -51 -11 -51 -31 0 -21
-19 -60 -35 -71 -21 -16 -59 -7 -92 22 -36 32 -53 36 -84 20 -42 -23 -14 -93
58 -143 35 -24 42 -26 71 -15 23 9 32 19 32 35 0 27 31 45 68 41 41 -5 39 -32
-4 -57 -28 -17 -34 -24 -25 -35 8 -10 6 -19 -9 -36 l-20 -23 20 -22 c11 -12
17 -25 13 -28 -14 -15 -73 -7 -90 12 -10 11 -25 21 -33 22 -18 4 -100 -32
-100 -43 0 -12 -52 -57 -66 -58 -6 0 -17 -6 -23 -14 -7 -8 -27 -17 -45 -20
-18 -4 -43 -15 -56 -26 -12 -10 -27 -21 -33 -24 -9 -3 -9 -7 0 -13 14 -10 11
-109 -4 -124 -5 -5 -24 -4 -44 2 -28 9 -47 8 -91 -5 -74 -21 -94 -20 -120 6
-20 20 -22 20 -35 3 -20 -28 -16 -35 21 -35 42 0 66 -9 66 -24 0 -20 40 -38
71 -31 37 8 38 -2 2 -16 l-28 -10 21 -17 c12 -9 24 -24 27 -33 7 -21 74 -34
93 -19 28 24 103 -20 104 -60 0 -8 9 -21 20 -28 11 -7 20 -19 20 -27 0 -19
-46 -31 -64 -15 -17 13 -85 10 -89 -5 -1 -5 19 -11 45 -13 25 -2 52 -10 58
-18 7 -7 19 -14 27 -14 16 0 131 36 180 56 45 18 199 36 245 29 25 -5 44 -15
55 -31 16 -25 42 -31 60 -13 13 13 109 39 145 39 28 0 49 -24 41 -47 -3 -10
15 -13 69 -14 40 -1 87 -4 103 -8 25 -6 27 -8 11 -14 -27 -11 -2 -37 35 -37
22 0 32 -6 39 -25 6 -15 17 -25 30 -25 26 0 26 -16 0 -23 -10 -3 -24 1 -31 9
-23 28 -85 38 -144 24 -30 -7 -55 -17 -55 -21 0 -5 15 -15 32 -22 18 -8 39
-21 47 -30 17 -21 40 -22 69 -1 12 8 22 11 22 5 0 -5 2 -16 5 -23 4 -9 -5 -18
-22 -26 l-28 -12 27 5 c23 4 30 0 43 -25 17 -33 54 -41 75 -15 7 9 21 13 30
10 9 -3 23 1 29 9 11 13 8 16 -13 22 -38 9 -21 24 28 24 26 0 53 -7 67 -18 13
-10 41 -26 62 -36 32 -15 37 -21 37 -51 0 -21 5 -36 13 -36 6 -1 35 -3 64 -4
29 -1 59 -8 67 -15 13 -10 17 -8 27 14 11 23 9 29 -12 52 -24 25 -24 26 -5 40
26 19 70 18 87 -2 20 -24 162 -13 201 16 30 22 49 27 30 8 -17 -17 -15 -45 4
-52 29 -11 68 -6 159 20 50 14 103 28 118 31 16 3 35 16 44 30 15 22 14 25 -3
38 -18 13 -16 14 17 15 20 0 42 7 49 15 7 8 25 15 40 15 33 0 70 34 46 43 -8
3 -25 3 -38 0 -22 -6 -22 -5 4 16 19 15 40 21 77 21 28 0 51 -4 51 -10 0 -5
-6 -10 -14 -10 -7 0 -19 -6 -25 -14 -14 -16 12 -26 71 -26 20 0 40 -5 44 -11
3 -6 22 -17 41 -25 18 -8 38 -25 43 -38 5 -13 25 -36 45 -51 33 -26 35 -29 19
-46 -9 -10 -14 -25 -10 -35 10 -27 -20 -62 -59 -70 -46 -8 -66 8 -58 46 8 45
-27 93 -84 116 -76 28 -159 21 -244 -22 -47 -24 -69 -41 -69 -53 0 -30 -24
-42 -67 -35 -26 4 -58 -1 -100 -15 -34 -12 -74 -21 -88 -21 -15 0 -35 -5 -45
-10 -19 -10 -19 -12 -3 -45 9 -19 20 -35 23 -35 17 0 172 -123 182 -145 10
-22 17 -25 64 -25 53 0 78 -15 53 -31 -8 -5 -28 -9 -45 -9 -20 0 -34 -6 -38
-16 -13 -35 23 -46 62 -18 13 9 37 14 60 12 29 -2 37 -7 37 -23 0 -16 -9 -21
-53 -27 -29 -5 -70 -17 -92 -28 -53 -27 -74 -27 -58 1 11 17 10 23 -8 38 -12
10 -24 26 -26 37 -2 13 -15 21 -41 25 -43 7 -56 -4 -33 -27 21 -21 20 -26 -10
-48 -21 -15 -30 -16 -50 -7 -33 15 -30 30 6 38 17 3 30 8 30 12 0 4 -24 19
-53 34 -60 30 -107 35 -107 12 0 -8 -11 -17 -25 -21 -14 -3 -26 -10 -26 -15
-1 -5 -2 -14 -3 -21 -1 -15 -58 -31 -106 -30 -19 0 -46 -1 -58 -4 -20 -4 -22
-7 -12 -19 14 -16 56 -20 64 -6 3 4 35 11 71 13 40 4 73 12 84 22 41 37 105 7
94 -45 -4 -24 -1 -30 19 -38 14 -5 31 -9 39 -8 8 1 15 -2 16 -8 3 -15 -118 -6
-141 11 -28 19 -81 18 -102 -3 -16 -17 -16 -18 -1 -21 20 -4 23 -38 5 -45 -7
-2 -27 -2 -43 0 -21 3 -35 0 -44 -11 -7 -9 -26 -16 -41 -16 -14 0 -30 -3 -33
-7 -13 -12 15 -33 44 -33 16 0 29 -4 29 -9 0 -8 -76 -44 -163 -76 -26 -10 -50
-22 -53 -26 -10 -17 -63 -9 -83 12 -17 18 -26 20 -75 14 -61 -8 -91 -29 -57
-40 12 -3 21 -10 21 -15 0 -10 -63 -30 -92 -30 -22 0 -24 -18 -3 -26 8 -4 15
-9 15 -14 0 -7 -130 -70 -146 -70 -5 0 -22 -7 -39 -16 -16 -9 -59 -25 -95 -35
-36 -11 -74 -24 -85 -29 -77 -34 -172 -73 -236 -96 -87 -31 -97 -38 -80 -58
10 -12 8 -16 -8 -21 -12 -3 -21 -11 -21 -17 0 -6 20 -8 58 -3 40 4 65 2 84 -8
l27 -14 -31 -37 -31 -38 24 -19 c25 -19 89 -26 89 -10 0 13 57 31 97 31 18 0
50 7 70 15 42 18 53 18 88 5 22 -8 24 -12 13 -29 -16 -26 -8 -33 50 -41 26 -4
68 -15 93 -25 43 -17 49 -17 85 -2 l39 15 -25 11 c-23 10 -22 11 11 6 37 -5
101 8 194 41 28 9 75 23 105 30 30 7 89 25 131 40 l75 28 50 -21 c60 -27 66
-53 14 -64 -19 -4 -49 -15 -65 -23 -17 -9 -36 -16 -43 -16 -7 0 -20 -4 -30
-10 -27 -15 -159 -70 -168 -70 -10 0 -142 -49 -166 -61 -10 -5 -22 -9 -28 -9
-6 0 -33 -11 -62 -25 -28 -14 -58 -25 -65 -25 -7 0 -32 -9 -56 -19 -23 -11
-57 -22 -74 -26 -18 -4 -36 -11 -39 -17 -7 -11 155 -5 276 11 41 5 225 18 407
27 345 17 363 16 363 -22 0 -11 19 -14 83 -14 130 1 221 16 267 45 43 27 49
39 25 49 -22 8 -19 47 5 53 25 7 26 37 3 55 -10 7 -35 39 -55 70 -20 31 -46
59 -58 63 -11 3 -20 15 -20 25 0 25 -21 31 -42 12 -19 -16 -53 -9 -42 9 5 9
-2 10 -24 6 -24 -5 -32 -3 -32 8 0 15 -35 20 -64 9 -12 -4 -4 -17 33 -52 27
-26 55 -52 63 -57 69 -54 135 -111 146 -127 12 -16 11 -18 -10 -18 -13 0 -39
11 -58 23 -67 42 -217 166 -245 202 -24 33 -26 40 -15 61 27 49 57 67 112 68
49 1 132 -16 168 -34 8 -4 16 -17 18 -28 2 -12 20 -31 40 -43 20 -13 52 -35
70 -51 39 -33 62 -35 87 -8 24 26 37 25 73 -5 18 -15 42 -25 61 -25 27 0 34
-6 56 -50 18 -35 33 -52 52 -56 32 -8 57 19 48 54 -7 27 -7 27 46 -3 55 -31
60 -31 57 2 -3 31 4 35 120 54 72 12 73 12 100 -13 15 -14 44 -31 65 -38 22
-7 36 -17 34 -24 -19 -46 -20 -44 27 -51 37 -6 50 -3 76 15 38 27 35 40 -11
54 -45 14 -61 26 -82 58 -20 33 -22 48 -4 48 14 0 23 50 47 249 19 156 15 170
-43 172 -16 0 -12 4 13 12 32 11 35 16 42 62 5 28 11 104 15 170 8 117 9 120
35 133 15 7 55 15 90 18 56 6 65 4 82 -15 22 -24 14 -38 -24 -43 -19 -2 -25
-9 -24 -25 0 -16 -5 -23 -17 -23 -26 0 -31 -13 -35 -91 -2 -39 -6 -74 -9 -79
-3 -5 -8 -62 -10 -127 -5 -117 -22 -251 -34 -265 -10 -11 0 -88 11 -88 10 0
115 69 183 119 22 17 54 38 70 47 17 9 62 40 100 68 39 28 87 59 107 70 36 18
37 18 67 -3 l31 -22 -21 -28 c-11 -15 -52 -50 -91 -77 -38 -27 -104 -76 -146
-109 -43 -34 -93 -72 -112 -85 -52 -36 -120 -93 -116 -98 2 -2 18 4 36 13 20
10 49 15 83 13 43 -2 52 -7 55 -23 3 -16 1 -18 -9 -7 -17 15 -40 15 -63 -1
-16 -11 -15 -15 13 -52 30 -40 44 -82 19 -57 -7 7 -20 12 -30 12 -13 0 -18 -8
-18 -31 0 -30 -1 -31 -32 -25 -18 3 -36 13 -41 21 -10 19 -56 19 -63 0 -3 -8
5 -33 17 -56 l24 -41 -25 -20 c-92 -74 -119 -108 -129 -166 -30 -155 -42 -199
-68 -245 -3 -5 12 -5 34 -1 53 9 109 79 63 79 -7 0 -15 5 -17 10 -3 10 11 25
115 122 35 32 76 71 90 87 107 117 249 246 269 246 13 0 47 12 74 26 44 22 55
24 80 14 30 -13 53 -5 45 15 -2 7 1 21 9 31 12 17 17 17 47 6 19 -6 45 -12 59
-13 31 0 70 -48 62 -77 -6 -25 -32 -28 -81 -11 -21 7 -37 7 -49 0 -16 -9 -16
-10 8 -20 30 -11 44 -37 26 -48 -7 -4 -27 -8 -46 -8 -19 0 -36 -5 -38 -12 -7
-18 31 -33 102 -40 53 -5 66 -3 70 10 4 8 17 18 31 21 13 4 24 13 24 21 0 8
12 17 28 21 46 10 53 14 47 24 -3 5 -15 10 -26 10 -10 0 -19 5 -19 10 0 24 93
-4 143 -43 31 -23 52 -31 103 -35 53 -4 65 -2 70 12 4 9 17 16 34 16 15 0 35
9 45 20 9 10 33 24 51 30 19 7 34 18 34 26 0 8 8 14 18 14 9 0 49 12 87 25 80
28 131 34 75 9 -159 -73 -180 -86 -180 -109 0 -12 -10 -30 -22 -39 -23 -17
-22 -17 19 -12 45 4 81 -13 69 -32 -4 -7 -16 -12 -27 -12 -12 0 -19 -7 -19
-18 0 -10 -5 -23 -10 -28 -17 -17 1 -73 31 -94 30 -22 45 -13 34 19 -8 27 6
33 44 18 30 -11 34 -10 52 12 16 20 25 23 59 17 24 -4 47 -2 59 6 15 9 24 8
46 -6 l26 -17 -25 -20 c-13 -10 -33 -19 -43 -19 -11 0 -29 -11 -40 -24 -15
-17 -28 -23 -42 -19 -32 8 -40 -26 -11 -49 32 -26 64 -16 122 38 26 24 52 44
57 44 5 0 13 9 16 20 5 17 15 20 60 20 43 0 53 -3 49 -14 -6 -16 8 -22 79 -32
35 -5 45 -10 38 -18 -13 -16 -3 -27 40 -50 39 -19 70 -16 101 11 12 11 28 14
48 9 20 -3 42 0 60 9 37 19 94 19 110 0 7 -8 19 -15 26 -15 15 0 19 -36 5 -44
-4 -3 -6 -17 -3 -31 3 -20 0 -25 -15 -25 -11 0 -28 7 -39 15 -10 8 -34 15 -51
15 -43 0 -44 -26 -4 -69 34 -36 66 -40 82 -10 12 24 33 23 128 -4 62 -17 88
-11 119 27 21 27 76 38 67 14 -9 -24 11 -38 64 -48 64 -12 76 -5 91 51 10 35
14 38 35 33 20 -5 27 -1 34 18 5 13 16 29 24 36 13 11 18 9 31 -10 21 -30 20
-51 -4 -73 -26 -24 -25 -29 10 -42 28 -11 30 -15 30 -63 0 -59 43 -237 71
-292 28 -56 53 -68 134 -68 76 0 95 9 95 46 0 29 -56 72 -73 55 -6 -6 -26 -11
-44 -11 -28 0 -34 4 -38 28 -4 15 -11 35 -16 45 -5 10 -12 46 -16 80 -4 52 -2
70 16 105 l21 41 -24 35 c-13 20 -26 55 -29 78 -7 60 -3 261 7 276 5 8 39 12
110 12 l102 0 34 35 35 36 -40 34 c-38 31 -46 34 -138 41 -96 7 -97 7 -97 33
0 14 -1 37 -1 50 0 30 24 56 46 48 16 -7 17 -40 2 -64 -9 -14 0 -20 33 -23 43
-4 47 -1 54 31 3 18 10 28 16 24 6 -4 22 0 35 9 13 9 31 16 38 16 17 0 47 -42
47 -64 0 -23 36 -99 59 -125 25 -29 26 -44 4 -77 -14 -22 -15 -29 -3 -47 17
-28 15 -114 -4 -171 -9 -26 -16 -65 -16 -86 0 -37 2 -40 29 -40 15 0 43 5 61
11 27 10 37 9 61 -5 48 -28 91 2 65 45 -13 22 -1 49 22 49 25 0 54 -33 46 -53
-13 -35 146 -74 285 -69 69 2 80 12 47 45 -37 37 -25 59 28 56 74 -3 83 0 96
31 14 33 34 38 60 15 19 -17 50 -10 50 11 0 24 24 15 54 -21 29 -34 68 -46 81
-25 3 6 19 10 36 10 18 0 29 5 29 14 0 19 22 26 67 19 31 -5 36 -3 26 8 -17
18 -16 29 2 29 9 0 29 -16 46 -35 34 -39 78 -46 113 -20 11 8 37 15 58 15 36
0 38 -2 38 -30 0 -24 4 -30 22 -30 12 0 31 11 43 24 18 22 31 25 115 31 l95 7
-19 -21 c-11 -12 -17 -23 -15 -26 13 -12 86 18 118 48 66 63 111 87 151 81 63
-9 82 32 26 57 -20 10 -28 9 -41 -5 -9 -9 -22 -16 -28 -16 -28 0 -57 13 -57
25 0 16 23 25 66 25 19 0 34 5 34 11 0 8 -12 10 -35 6 -19 -3 -49 -1 -67 5
-18 6 -40 13 -48 15 -12 4 -12 7 3 18 13 9 46 13 102 13 63 -1 89 3 109 15 24
16 27 16 44 -1 21 -21 109 -37 126 -23 6 5 25 11 41 13 24 2 29 0 27 -14 -4
-26 11 -22 63 14 66 47 59 58 -22 33 -28 -9 -38 11 -24 48 8 21 17 27 40 27
16 0 37 7 46 16 19 19 159 26 209 10 45 -14 28 14 -26 44 -51 28 -88 58 -88
72 0 6 33 7 78 3 64 -6 80 -4 91 8 11 14 9 20 -13 42 -22 22 -32 25 -57 20
-26 -6 -36 -2 -65 26 -51 49 -41 91 19 75 24 -6 131 -90 187 -147 19 -20 46
-39 60 -43 67 -16 90 -76 30 -76 -45 0 -63 -10 -49 -27 11 -12 8 -13 -17 -7
-31 7 -32 7 -54 5 -24 -3 28 -41 55 -41 13 0 25 7 29 15 7 20 31 19 62 -2 23
-15 28 -15 60 0 46 23 70 21 88 -4 18 -26 54 -20 88 15 13 13 35 26 51 30 45
11 30 50 -23 58 -25 4 -25 4 7 21 18 9 54 17 81 17 32 0 54 5 62 15 17 20 33
19 48 -5 14 -23 40 -26 68 -6 11 8 37 17 57 21 21 4 40 11 42 16 11 17 173
-98 255 -180 33 -32 148 -94 161 -86 5 4 18 24 29 45 11 21 40 60 65 86 25 27
45 51 45 55 0 4 16 14 36 24 36 17 37 17 103 -14 37 -17 88 -37 114 -45 44
-13 48 -13 57 5 8 14 22 19 53 19 31 0 48 6 65 24 l22 24 -32 25 -32 25 44 12
c27 7 69 9 112 5 49 -5 68 -4 68 5 0 6 35 27 78 47 153 70 314 94 357 53 12
-11 41 -24 66 -28 55 -11 99 -32 113 -55 9 -15 4 -23 -29 -52 -22 -19 -69 -53
-105 -76 -36 -23 -78 -51 -93 -61 -15 -11 -47 -25 -70 -33 -23 -7 -57 -19 -74
-26 -26 -11 -35 -11 -45 -1 -10 10 -8 14 10 18 24 7 30 29 10 38 -7 4 2 4 20
1 26 -4 47 4 97 33 35 20 64 42 65 48 0 6 18 16 40 23 22 6 40 16 40 21 0 12
-26 13 -48 1 -9 -4 -35 -11 -57 -15 -37 -6 -39 -5 -21 9 23 18 5 20 -27 4 -12
-7 -57 -47 -100 -90 -43 -44 -82 -79 -88 -79 -20 0 -8 -20 16 -26 14 -3 25 -9
25 -14 0 -11 -35 -40 -48 -40 -21 0 -13 -17 16 -30 28 -13 260 -15 355 -3 41
5 47 8 42 24 -5 14 0 22 18 28 29 11 719 31 730 21 10 -9 -121 -20 -239 -20
-54 0 -96 -4 -99 -10 -5 -8 58 -9 202 -6 114 2 230 5 257 5 42 1 47 3 36 16
-10 12 -8 16 15 25 14 5 36 10 48 10 43 0 0 17 -73 29 -41 7 -111 21 -155 32
-177 42 -362 79 -392 79 -17 0 -35 4 -38 10 -3 5 -21 10 -40 10 -19 0 -35 6
-38 14 -8 21 1 26 52 27 25 1 38 3 28 6 -28 7 -16 34 24 55 34 18 37 18 75 1
41 -18 193 -26 205 -10 3 5 32 1 65 -7 53 -14 61 -14 82 0 17 11 35 14 61 9
78 -16 112 -15 118 2 4 10 -2 22 -17 33 -30 22 -18 44 20 36 35 -7 46 6 54 65
5 35 3 49 -9 59 -8 7 -15 16 -15 21 0 21 359 -6 383 -30 10 -10 152 -6 187 6
12 4 12 7 -4 18 -11 8 -16 20 -12 30 7 19 4 21 -209 86 -93 28 -186 57 -205
64 -62 22 -222 73 -315 100 -49 14 -103 30 -120 36 -16 6 -75 26 -130 45 -55
18 -112 40 -127 49 -14 8 -36 15 -48 15 -22 0 -234 66 -320 100 -25 10 -61 20
-81 24 -20 4 -44 15 -54 26 -16 18 -17 22 -3 33 21 17 30 47 15 52 -6 2 -32 6
-57 9 -25 3 -46 5 -47 5 -2 1 -3 13 -3 27 0 24 -2 26 -35 20 -19 -3 -51 -9
-70 -12 -40 -7 -42 -3 -19 31 17 27 19 25 -36 30 -14 2 -293 6 -620 10 -327 4
-629 11 -670 15 -64 6 -239 60 -280 85 -18 11 16 29 110 60 72 24 98 39 168
99 113 96 143 112 214 119 43 4 67 12 84 28 23 22 24 22 75 6 28 -10 64 -17
80 -17 67 0 2 -38 -101 -59 -66 -14 -82 -23 -198 -125 -120 -105 -113 -116 46
-72 143 39 217 49 319 43 88 -5 95 -4 122 19 16 13 45 31 63 39 19 7 41 21 48
30 8 10 24 21 37 26 27 10 31 53 7 80 -17 19 -20 14 44 65 l32 26 105 -13
c107 -13 135 -8 101 17 -18 13 -17 14 22 14 31 0 44 5 52 20 14 26 31 25 54
-1 14 -17 25 -20 52 -16 40 7 52 -7 30 -32 -20 -22 -20 -27 0 -35 8 -3 29 1
46 10 22 11 33 13 41 5 12 -12 79 -15 90 -5 16 16 -39 94 -66 94 -35 0 -23 15
20 26 48 12 90 3 78 -16 -3 -5 4 -28 15 -50 19 -37 20 -44 7 -63 -27 -41 -91
-51 -242 -37 -74 6 -150 16 -168 21 -60 17 -195 23 -212 9 -21 -18 -19 -30 6
-30 18 0 20 -4 15 -25 -8 -32 -6 -33 146 -50 67 -8 170 -21 228 -29 139 -20
163 -20 191 3 l24 20 -34 35 c-25 26 -30 36 -19 36 28 0 68 -19 68 -32 0 -24
230 -246 285 -276 12 -6 59 -20 105 -32 97 -24 109 -32 89 -56 -11 -14 -25
-16 -84 -10 -38 3 -87 9 -109 12 -61 11 -41 -17 35 -46 55 -21 80 -24 180 -23
133 0 169 7 169 29 0 14 -10 15 -74 9 -51 -4 -76 -3 -81 5 -11 17 14 39 54 46
20 4 44 11 54 16 17 9 15 13 -21 39 -22 16 -59 36 -83 44 -53 19 -79 42 -79
70 0 11 -5 26 -11 32 -6 6 -12 26 -13 45 l-2 33 -62 2 c-59 1 -92 14 -92 34 0
5 11 9 25 9 46 0 75 21 75 53 l0 30 49 -7 c30 -4 52 -2 56 4 3 5 14 10 23 10
9 0 24 5 32 10 13 9 13 12 -2 21 -10 5 -18 14 -18 19 0 17 30 11 61 -11 38
-27 94 -23 94 6 0 12 11 25 28 32 15 7 27 17 27 23 0 5 7 10 15 10 8 0 24 9
35 20 30 30 161 55 216 41 24 -6 64 -11 89 -11 37 0 45 3 43 16 -3 17 13 25
73 38 14 3 38 17 53 31 20 19 25 30 20 50 -7 27 -12 25 80 31 76 4 70 45 -11
65 -34 9 -42 15 -38 29 10 31 -5 50 -40 50 -37 0 -58 -19 -49 -44 4 -11 1 -16
-11 -16 -12 0 -16 6 -12 20 3 11 0 23 -6 27 -20 13 -100 32 -134 33 -44 0 -52
19 -20 45 36 28 34 43 -5 53 -28 7 -33 13 -31 35 2 23 -2 27 -27 27 -22 0 -28
-5 -27 -18 0 -10 -12 -37 -29 -60 -28 -40 -31 -42 -81 -42 -48 0 -71 12 -41
22 23 8 -4 28 -38 28 -36 0 -43 14 -24 51 15 28 37 23 55 -11 20 -39 51 -39
99 -1 35 28 36 30 17 40 -11 6 -27 11 -37 11 -13 0 -14 3 -4 15 7 9 21 13 35
9 30 -8 41 13 20 36 -17 19 -16 20 9 30 15 5 36 10 46 10 10 0 22 5 25 10 4 6
-5 10 -20 10 -30 0 -65 16 -65 30 0 6 8 10 19 10 32 0 81 21 81 36 0 20 -36
36 -78 32 -33 -3 -37 -6 -37 -30 1 -27 -1 -28 -48 -28 l-49 0 5 30 c7 34 -12
50 -59 50 -22 0 -25 -3 -16 -12 17 -17 -24 -58 -59 -58 -36 0 -46 16 -17 25
13 4 31 14 41 23 17 15 16 17 -14 48 -17 18 -45 38 -61 45 l-29 12 27 28 c24
26 25 28 8 37 -11 5 -34 13 -51 17 -38 8 -41 18 -13 38 l21 14 -23 36 c-28 44
-63 56 -148 53 -85 -3 -90 -1 -83 35 3 18 1 29 -6 29 -6 0 -11 7 -11 16 0 19
33 11 69 -17 13 -11 32 -19 42 -19 10 0 29 -5 43 -11 26 -12 76 -5 76 11 0 16
-57 40 -97 40 l-38 0 24 19 24 18 -54 8 c-30 4 -61 7 -71 6 -9 -1 -19 2 -22 8
-9 13 35 78 57 84 9 3 17 13 17 24 0 23 -36 83 -50 83 -5 0 -10 9 -10 21 0 27
55 50 145 60 174 19 324 39 399 54 155 30 191 41 194 58 3 14 -5 17 -42 17
-25 0 -68 -5 -96 -11 -39 -8 -54 -8 -65 1 -10 8 -28 10 -53 5 -20 -4 -59 -11
-87 -15 -27 -4 -86 -15 -130 -23 -44 -8 -132 -18 -195 -22 -63 -4 -131 -10
-151 -15 -21 -4 -43 -4 -50 1 -20 12 21 63 55 67 14 2 34 14 42 28 11 16 26
24 45 24 16 0 29 5 29 10 0 6 -23 10 -51 10 -40 0 -63 -7 -101 -30 -26 -16
-52 -30 -57 -30 -5 0 -16 -7 -24 -15 -23 -23 -39 -22 -42 3 -1 16 5 24 21 28
36 9 50 32 32 51 -19 18 -46 11 -86 -21 -20 -17 -45 -25 -94 -29 -61 -6 -69
-4 -82 15 -21 30 -10 40 37 33 32 -5 52 -1 82 14 21 12 56 21 76 21 29 0 38 5
47 25 7 14 20 28 29 32 25 9 73 54 73 70 0 14 -31 33 -55 33 -9 0 -19 -9 -22
-21 -4 -14 -10 -18 -22 -13 -9 4 -44 12 -78 17 l-62 10 4 53 c2 44 0 54 -15
59 -24 8 -52 -5 -46 -20 3 -8 -2 -16 -10 -19 -10 -4 -35 11 -67 39 -35 30 -61
45 -79 45 -16 0 -28 4 -28 9 0 8 16 10 128 10 24 0 54 -4 68 -9 24 -9 64 4 64
22 0 4 -21 23 -46 42 -34 27 -53 34 -70 30 -13 -3 -35 -3 -49 0 -21 5 -25 12
-25 46 0 30 -5 42 -21 50 -19 11 -19 13 -5 29 21 23 20 31 -3 31 -10 0 -30 9
-45 21 -17 13 -36 19 -52 16 -13 -2 -27 0 -30 4 -3 5 4 9 15 9 16 0 21 6 21
24 0 42 65 43 98 3 7 -8 28 -18 47 -21 31 -6 34 -10 29 -31 -4 -17 -1 -27 9
-31 28 -10 40 5 23 31 -19 29 -12 35 40 35 24 0 45 3 47 8 9 15 -28 142 -43
147 -8 3 -33 22 -55 43 -22 20 -60 54 -84 76 l-44 38 -89 -7 c-64 -5 -93 -3
-104 6 -12 10 -12 13 2 24 22 15 10 35 -21 35 -13 0 -33 9 -43 21 -16 16 -27
19 -56 14 -27 -6 -36 -4 -36 7 0 7 -9 21 -20 31 -11 9 -20 25 -20 35 0 10 -4
22 -9 28 -5 5 -12 19 -16 32 -5 19 -3 22 19 22 27 0 43 -15 26 -25 -15 -9 -12
-35 4 -35 7 0 16 -9 19 -20 9 -36 107 -15 107 24 0 7 29 23 65 35 36 13 68 28
71 33 4 6 -1 8 -12 5 -11 -3 -48 -11 -82 -17 -55 -10 -67 -9 -88 5 -30 20 -38
37 -30 68 4 19 18 27 68 41 115 33 107 36 -68 29 -117 -4 -173 -2 -178 5 -3 6
1 15 10 20 26 15 7 32 -35 32 -38 0 -81 -31 -81 -58 0 -19 -14 -14 -44 17 -17
18 -24 31 -17 35 18 11 12 31 -11 41 -13 6 -23 19 -23 30 0 16 8 21 38 23 20
2 37 8 37 14 0 6 -17 26 -37 45 l-38 33 24 18 c60 42 63 46 49 65 -12 16 -39
23 -160 43 -44 8 -46 13 -15 41 12 11 27 28 32 38 6 9 28 21 50 25 l40 8 -51
1 c-38 1 -56 6 -70 22 -16 18 -25 20 -74 14 -105 -14 -260 0 -260 23 0 4 14
16 32 26 17 11 46 34 64 53 18 18 39 33 48 33 24 0 86 41 86 56 0 8 7 17 15
21 18 6 45 54 45 78 0 28 -52 75 -85 76 -27 1 -26 2 10 10 22 4 61 5 87 2 50
-6 98 2 98 16 0 5 -17 19 -37 31 -30 17 -45 20 -85 15 -39 -6 -48 -4 -48 8 0
8 7 20 16 28 13 10 20 10 43 -4 31 -18 93 -10 120 17 14 15 12 16 -25 16 -22
0 -49 7 -60 15 -10 8 -36 15 -56 15 -24 0 -45 7 -58 20 -11 11 -24 20 -28 20
-5 0 -17 9 -28 21 -17 19 -18 21 -1 30 9 6 17 16 17 23 0 8 12 21 26 31 18 12
23 20 15 29 -7 9 -6 19 5 35 18 26 7 47 -29 54 -15 3 -12 5 10 6 72 3 46 51
-28 51 -36 0 -51 -5 -58 -17 -14 -26 -164 -26 -169 0 -2 10 3 17 12 17 9 0 16
5 16 11 0 8 18 10 60 6 70 -8 83 3 44 37 l-28 23 57 17 c31 9 57 21 57 26 0 5
-11 17 -25 26 -31 20 -75 11 -82 -16 -6 -22 -17 -25 -193 -40 -128 -10 -500
-19 -500 -12 0 15 41 31 77 32 66 0 81 10 42 27 l-34 15 31 26 c27 24 30 31
23 62 -4 19 -6 36 -4 38 1 2 35 3 74 4 53 0 77 -4 89 -16 16 -14 20 -14 40 0
34 23 45 50 30 73 -16 26 -7 34 23 22 13 -5 45 -13 70 -16 35 -4 48 -11 52
-25 6 -24 -1 -25 -31 -4 -20 14 -23 14 -28 0 -3 -9 -3 -27 0 -40 3 -14 2 -28
-4 -31 -20 -12 -10 -24 26 -31 28 -5 40 -2 59 16 16 15 41 24 75 28 52 5 60
15 40 53 -8 14 -17 18 -36 13 -42 -11 -87 45 -48 60 9 3 25 -1 37 -9 23 -16
64 -19 116 -9 40 8 40 24 1 24 -34 0 -49 22 -30 45 7 8 21 15 31 15 11 0 19 5
19 11 0 5 5 7 11 4 18 -11 99 5 99 19 0 18 -47 48 -68 44 -9 -2 -23 -16 -30
-31 -16 -32 -26 -34 -45 -7 -16 23 -76 50 -112 50 -37 0 -29 33 9 40 50 9 41
28 -20 40 -61 13 -88 4 -65 -23 16 -20 -10 -39 -61 -46 l-41 -6 27 -32 c34
-40 51 -41 68 -5 15 30 58 44 58 18 0 -24 37 -56 65 -56 31 0 31 -7 3 -30 -17
-14 -32 -18 -61 -13 -26 4 -43 1 -55 -10 -22 -19 -194 -39 -209 -23 -10 9 17
26 42 26 11 0 30 7 42 15 l22 15 -23 25 c-15 16 -34 25 -52 25 -16 0 -75 5
-131 12 -84 9 -100 14 -91 25 6 7 8 16 4 20 -3 4 3 16 14 28 19 20 19 23 5 53
-16 32 -31 37 -115 45 -35 3 -32 7 17 22 12 4 14 8 5 17 -9 9 -8 16 5 30 25
28 6 38 -83 41 -82 2 -114 16 -114 50 0 10 -17 16 -54 21 -77 9 -87 14 -80 41
5 20 1 24 -26 30 -21 5 -35 16 -43 33 -6 15 -12 29 -13 31 -2 2 -56 5 -120 7
-112 3 -143 12 -128 36 3 4 59 8 125 8 78 0 118 4 114 10 -3 6 -27 10 -53 10
-34 1 -187 20 -229 30 -1 0 0 6 3 13 3 9 -7 18 -28 25 -29 10 -25 11 40 9 61
-1 75 1 83 16 6 9 19 17 31 17 13 0 18 5 15 14 -3 8 1 20 9 26 36 31 -7 56
-68 40 -31 -9 -47 -9 -64 1 -18 9 -30 9 -64 -5 -54 -21 -60 -20 -60 9 0 13 -8
28 -17 34 -28 15 -6 26 22 11 21 -11 37 -11 88 -1 43 8 70 9 89 2 27 -10 38
-6 38 14 0 8 -23 14 -61 18 -34 3 -68 12 -78 21 -20 18 -51 21 -51 5 0 -7 -19
-9 -57 -4 -32 3 -87 8 -123 9 -86 4 -169 17 -176 27 -8 14 65 22 135 15 36 -3
91 -8 121 -11 39 -4 49 -3 35 4 -11 5 -34 10 -52 10 -24 1 -33 7 -39 24 -9 30
-22 37 -74 37 -47 0 -80 13 -67 27 14 13 81 8 116 -10 19 -9 41 -17 48 -17 18
0 73 38 73 51 0 5 -32 9 -70 9 -73 0 -146 22 -135 40 3 5 23 10 43 10 28 0 33
3 22 10 -19 12 -160 13 -179 1 -19 -12 -3 -33 20 -26 11 4 33 3 50 0 30 -7 30
-7 13 -27 -12 -13 -25 -17 -39 -13 -54 17 -116 28 -175 31 -65 4 -164 11 -187
13 -7 0 -13 7 -13 14 0 8 -9 22 -21 33 -18 16 -42 20 -159 24 -137 5 -138 5
-165 34 -22 24 -25 33 -16 47 7 12 7 20 1 24 -17 11 -70 -6 -70 -21 0 -8 -1
-14 -2 -14 -2 0 -25 7 -52 15 -27 8 -64 15 -83 15 -18 0 -33 5 -33 10 0 6 11
10 24 10 33 0 41 16 13 25 -21 6 -21 7 6 17 21 8 32 7 40 -2 9 -10 9 -14 0
-17 -27 -10 -11 -23 26 -23 49 0 59 13 26 34 -14 9 -23 21 -20 26 3 4 -7 22
-21 39 -18 21 -21 31 -12 31 18 0 64 48 55 57 -15 14 28 43 74 49 26 4 50 13
53 20 7 18 36 18 36 1 0 -16 71 -33 178 -42 60 -6 72 -5 72 8 0 22 -20 34 -65
40 -71 8 -160 30 -175 42 -8 7 -57 16 -109 20 -118 9 -127 12 -106 35 16 17
15 19 -4 30 -12 6 -45 14 -74 17 -29 3 -71 14 -95 25 -28 13 -52 18 -70 13
-82 -20 -186 -25 -325 -15 -82 5 -191 10 -242 10 -52 0 -96 4 -100 9 -9 16 26
21 139 23 59 0 102 4 95 9 -23 14 53 20 121 10 36 -6 98 -15 139 -22 51 -8 76
-8 84 0 17 17 -36 31 -158 42 -60 6 -130 14 -155 19 -53 11 -433 11 -450 0z
m654 -575 c11 -5 36 -4 59 2 32 9 45 8 68 -6 34 -19 36 -27 9 -36 -26 -8 -25
-19 3 -38 25 -16 52 -86 38 -100 -11 -11 -41 2 -41 19 0 17 -17 19 -22 3 -4
-13 -54 -1 -113 26 -16 8 -51 17 -77 20 -45 6 -78 25 -43 25 9 0 14 4 10 9 -3
5 -1 12 4 16 18 10 0 34 -30 40 -23 5 -27 10 -20 19 12 14 123 15 155 1z m483
-170 c19 -8 56 -15 82 -15 56 0 93 -9 85 -21 -3 -5 -18 -9 -35 -9 -24 0 -29
-4 -29 -25 0 -26 -23 -35 -35 -14 -4 6 -38 10 -79 10 -121 -1 -286 10 -286 20
0 5 13 9 29 9 34 0 97 25 93 37 -2 7 50 17 116 21 12 1 39 -5 59 -13z m557
-164 c21 -23 7 -36 -30 -27 -37 10 -46 -1 -29 -35 15 -29 16 -29 105 -29 63 0
100 -5 125 -17 66 -32 45 -40 -85 -35 -52 2 -133 6 -180 7 -88 4 -191 12 -247
21 -40 6 -44 23 -5 23 52 1 177 11 199 16 14 3 23 14 25 32 2 17 14 33 33 44
40 23 68 23 89 0z m-2146 -173 c11 -35 23 -83 27 -108 4 -25 16 -73 26 -107
l19 -62 -25 -25 c-14 -14 -25 -29 -25 -35 0 -5 -26 -13 -57 -16 -32 -4 -65 -7
-73 -8 -11 -2 -14 7 -13 33 1 19 4 73 5 120 2 47 9 94 15 105 7 11 15 36 18
56 3 21 12 42 20 49 8 7 12 17 9 22 -5 7 20 35 33 38 1 0 10 -28 21 -62z
m2635 -347 c16 -6 26 -20 30 -40 4 -20 12 -31 24 -31 15 0 14 -3 -5 -22 -20
-20 -31 -23 -95 -20 -53 2 -75 7 -84 19 -9 12 -10 20 -2 29 14 17 3 34 -21 34
-21 0 -35 -29 -20 -44 22 -22 9 -29 -45 -22 -58 7 -95 23 -95 42 0 6 -10 16
-22 21 -23 11 -23 11 6 22 21 8 48 9 90 3 36 -6 71 -6 85 -1 13 5 39 8 57 7
18 -1 36 1 40 5 10 10 28 9 57 -2z m-2625 -52 c68 0 97 -5 143 -24 32 -14 69
-25 82 -25 14 0 30 -6 36 -14 10 -11 8 -16 -8 -21 -29 -9 -15 -33 22 -37 28
-3 32 -7 32 -31 0 -28 -1 -28 -75 -34 -137 -10 -207 -7 -232 10 -46 33 -61 47
-56 53 14 13 88 24 170 24 48 0 89 4 93 9 3 5 -3 17 -12 27 -15 15 -33 16
-155 11 -88 -4 -140 -2 -144 4 -3 6 -17 15 -31 20 -21 8 -23 12 -12 25 8 10
21 13 37 9 13 -3 63 -6 110 -6z m3436 -425 c10 -4 18 -24 22 -55 7 -54 26 -72
62 -62 20 5 22 1 22 -31 0 -20 -4 -36 -9 -36 -5 0 -16 -16 -25 -35 -12 -25
-24 -35 -39 -35 -19 0 -22 6 -23 42 -1 35 -7 47 -35 70 -30 25 -32 30 -20 52
14 25 1 66 -21 66 -7 0 -6 5 2 15 13 16 38 19 64 9z m-2642 -352 c18 -6 51
-14 72 -19 50 -10 68 -36 43 -60 -16 -16 -46 -18 -295 -22 -258 -3 -279 -2
-300 16 -41 32 -12 61 78 79 19 3 42 10 50 15 20 11 310 4 352 -9z m3286 -5
c3 -17 -2 -18 -67 -11 -121 11 -172 -11 -105 -46 23 -13 23 -15 7 -32 -27 -30
-80 -24 -114 13 -27 29 -35 31 -121 37 -59 5 -93 11 -96 20 -2 8 8 12 30 13
18 0 101 7 183 14 207 17 279 15 283 -8z m-5429 -194 l34 -6 -33 -11 c-43 -14
-49 -34 -13 -41 15 -4 43 -13 61 -21 18 -8 40 -14 50 -14 9 0 37 -14 61 -30
24 -17 56 -30 71 -30 15 0 33 -7 40 -15 11 -13 7 -15 -23 -15 -38 0 -87 -18
-87 -31 0 -4 -21 -11 -47 -15 -27 -4 -40 -10 -30 -12 9 -2 17 -10 17 -17 0 -8
8 -18 18 -24 16 -9 16 -11 0 -27 -13 -14 -32 -16 -105 -14 -48 2 -124 3 -169
1 -45 -1 -93 3 -110 10 -41 17 -111 28 -249 39 -66 5 -149 14 -185 20 -36 5
-96 14 -135 20 -38 5 -99 14 -135 19 -36 5 -103 15 -150 21 -47 7 -96 18 -109
25 -20 10 5 12 145 9 93 -1 196 -5 229 -9 45 -6 70 -3 99 9 24 10 67 16 115
16 42 0 101 7 131 15 30 8 89 23 130 34 50 14 106 21 168 21 54 0 92 4 92 10
0 6 -13 10 -29 10 -15 0 -43 5 -62 11 -19 6 -40 13 -48 15 -11 4 -10 8 4 24
14 15 26 19 54 14 20 -3 47 -1 60 4 14 5 42 5 65 0 23 -4 56 -11 75 -15z
m3649 17 c30 -7 47 -7 61 2 17 10 24 8 46 -14 26 -26 26 -27 6 -37 -11 -6 -42
-11 -70 -11 -79 0 -60 -15 22 -18 80 -3 156 -19 232 -50 28 -12 59 -24 70 -28
19 -7 19 -8 -2 -11 -17 -3 -22 -10 -19 -26 4 -28 15 -30 59 -12 43 18 45 22
15 35 -16 6 4 9 71 9 85 1 92 0 80 -15 -10 -12 -24 -15 -56 -10 -25 3 -43 2
-43 -4 0 -6 6 -10 13 -11 6 0 -6 -7 -28 -14 -37 -13 -33 -14 70 -9 61 2 141 7
179 10 45 4 66 3 62 -4 -7 -11 -47 -19 -161 -31 -44 -5 -108 -14 -141 -20 -34
-6 -81 -11 -105 -10 -48 2 -165 -14 -216 -30 -18 -5 -103 -9 -188 -9 -126 0
-155 3 -155 14 0 8 6 14 14 14 8 0 21 6 28 13 23 22 98 57 123 57 13 0 26 4
29 9 8 12 -131 22 -272 20 -74 -1 -117 2 -125 10 -8 8 1 11 36 11 33 0 49 5
53 15 6 16 60 44 139 73 41 15 50 22 48 41 -2 16 5 25 30 36 39 17 41 17 95 5z
m1034 -352 c12 -14 45 -33 218 -125 92 -49 81 -62 -26 -29 -43 13 -105 27
-137 30 -32 4 -73 14 -90 23 l-32 16 24 9 c34 12 20 22 -74 52 -98 32 -103 32
-115 1 -7 -19 -17 -25 -40 -25 -33 0 -43 27 -12 36 9 3 26 10 37 15 52 23 229
21 247 -3z m-5972 -28 c0 -5 -4 -10 -10 -10 -5 0 -36 -18 -68 -40 -34 -23 -77
-43 -105 -49 -55 -10 -68 -18 -47 -31 12 -8 12 -10 -3 -16 -9 -3 -24 -3 -33 0
-18 7 -94 -15 -94 -28 0 -4 9 -6 20 -2 11 3 29 9 40 12 30 9 25 -15 -6 -26
-14 -6 -40 -10 -59 -10 -18 0 -46 -7 -61 -15 -16 -8 -54 -15 -84 -15 -48 1
-60 5 -94 35 l-39 35 34 0 c26 0 37 6 44 23 6 12 17 20 25 19 54 -13 78 -13
91 1 8 8 32 17 52 21 20 3 54 9 74 12 21 4 47 13 58 20 11 7 45 15 75 19 30 4
82 17 115 30 72 27 75 28 75 15z m5012 -81 c89 -22 172 -45 183 -50 11 -5 56
-16 100 -24 105 -18 146 -29 225 -55 147 -49 151 -48 -190 -48 -173 1 -389 0
-478 -2 l-164 -2 -34 33 c-39 38 -43 67 -11 91 20 14 29 14 60 5 46 -15 48
-27 5 -27 -32 -1 -32 -1 -13 -16 13 -10 31 -13 52 -9 24 4 35 1 45 -13 11 -15
24 -18 78 -17 79 3 150 15 150 26 0 15 -68 49 -98 49 -17 0 -56 9 -87 21 -30
11 -63 18 -72 15 -10 -3 -56 -1 -103 3 -47 5 -86 5 -88 1 -2 -5 -16 -4 -32 2
-24 8 -35 6 -60 -12 -17 -12 -28 -26 -25 -31 10 -15 -32 -10 -45 6 -11 13 -9
20 10 40 18 19 35 24 89 28 36 3 82 9 102 12 24 5 57 0 102 -14 74 -22 101
-19 92 10 -9 28 19 25 207 -22z m-3684 5 c12 -8 22 -18 22 -22 0 -4 23 -20 50
-37 27 -16 50 -33 50 -37 0 -4 -10 -10 -22 -14 -22 -7 -22 -7 -3 -15 11 -4 49
-5 85 -2 58 5 67 3 85 -17 19 -21 19 -22 0 -36 -22 -16 -51 -18 -60 -4 -9 14
-36 0 -33 -18 5 -29 -43 -36 -154 -23 -57 7 -117 16 -134 22 -17 5 -41 9 -55
9 -13 0 -30 4 -38 9 -11 7 -10 12 8 22 11 8 21 17 21 20 0 7 -128 -22 -145
-32 -27 -17 -267 -37 -654 -54 -159 -7 -15 24 212 45 59 6 142 20 185 31 150
39 228 56 334 74 116 19 174 45 164 72 -14 34 32 38 82 7z m4267 -3 c28 -4 59
-12 70 -18 18 -11 19 -12 3 -18 -30 -12 -11 -22 67 -36 44 -7 71 -17 66 -22
-8 -8 -254 20 -378 44 -62 12 -79 29 -29 29 26 0 39 6 48 21 14 22 4 22 153 0z
m370 -80 c44 -12 94 -28 110 -35 17 -8 47 -22 68 -31 20 -9 37 -18 37 -21 0
-2 -22 -2 -50 2 -30 4 -50 3 -50 -3 0 -16 32 -41 75 -59 22 -9 35 -19 28 -21
-27 -10 -504 49 -504 62 0 6 26 15 57 22 77 15 104 29 104 52 0 10 8 22 18 26
16 6 16 8 -3 22 -19 15 -19 15 5 10 14 -3 61 -15 105 -26z m-5680 -11 c17 -11
40 -20 53 -20 12 0 22 -4 22 -9 0 -4 -30 -11 -68 -15 -37 -4 -98 -13 -135 -21
-38 -8 -103 -17 -145 -19 l-77 -6 62 21 c48 16 62 25 65 42 3 20 11 23 75 28
40 3 76 8 79 12 13 12 38 7 69 -13z m1858 -109 c64 -34 124 -61 131 -61 7 0
19 -7 26 -15 7 -9 46 -31 85 -49 86 -40 107 -62 49 -52 -21 4 -75 17 -119 28
-44 11 -107 24 -140 29 -89 12 -186 36 -199 50 -8 9 0 10 37 6 61 -6 68 7 17
29 -22 10 -40 21 -40 25 0 4 -15 9 -32 12 -66 11 -178 42 -178 49 0 9 107 16
185 12 51 -2 78 -12 178 -63z m-2260 -3 c14 -17 52 -32 125 -48 93 -21 69 -31
-123 -50 -60 -7 -132 -10 -160 -8 l-50 3 30 17 30 17 -28 1 c-16 0 -38 -5 -49
-11 -12 -7 -24 -7 -29 -2 -15 15 10 30 81 45 41 9 65 20 66 29 1 8 2 18 3 23
2 14 91 0 104 -16z m3366 -184 c9 -8 -10 -17 -56 -25 -57 -11 -71 -22 -53 -44
19 -23 -9 -50 -40 -40 -18 6 -21 12 -16 36 5 25 2 30 -20 35 -14 4 -58 4 -97
0 -85 -8 -264 9 -285 27 -12 10 25 13 189 17 193 5 369 2 378 -6z m722 -130
c16 -8 39 -12 49 -9 13 4 20 2 20 -7 0 -8 15 -20 34 -26 19 -7 36 -19 39 -26
5 -11 23 -13 88 -9 95 7 109 -2 109 -70 l0 -40 -52 7 c-29 3 -100 10 -158 15
-109 10 -251 29 -257 35 -2 1 30 8 69 15 103 18 112 21 99 34 -17 17 -13 37 7
37 12 1 9 5 -11 16 -20 11 -32 12 -46 4 -28 -15 -84 -13 -79 3 4 10 43 36 56
37 2 0 16 -7 33 -16z m-1935 -19 c27 -8 60 -15 74 -15 55 -1 -8 -19 -104 -29
-111 -13 -116 -15 -116 -41 0 -28 -17 -34 -110 -36 -47 -2 -123 -7 -170 -13
-102 -13 -120 -14 -120 -2 0 4 21 14 48 20 26 7 76 23 112 36 107 38 293 94
316 94 11 1 43 -6 70 -14z m1080 -140 c25 -16 33 -54 12 -56 -44 -5 -185 5
-195 13 -6 5 -22 8 -35 6 -24 -3 -35 19 -24 49 6 14 21 15 112 10 71 -4 114
-11 130 -22z m-4151 -235 c4 -14 15 -20 36 -20 16 0 29 -4 29 -9 0 -19 -281
-281 -302 -281 -11 0 -10 17 1 22 4 2 25 30 46 62 21 33 56 79 78 103 24 26
37 49 33 58 -5 15 47 85 64 85 5 0 12 -9 15 -20z m3915 -265 c16 -19 34 -19
50 0 13 16 49 19 88 9 26 -7 29 -34 6 -70 -9 -13 -20 -39 -23 -56 -4 -17 -14
-36 -23 -42 -25 -16 -72 4 -76 32 -2 13 -17 31 -34 41 -16 10 -36 28 -44 40
-8 11 -21 21 -29 21 -16 0 -28 16 -21 28 9 14 93 13 106 -3z m-439 -121 c19
-17 119 -53 179 -64 25 -5 68 -14 95 -21 28 -6 112 -14 187 -16 107 -4 140 -8
150 -20 10 -13 9 -18 -7 -29 -28 -21 -288 -20 -305 1 -6 8 -9 18 -6 24 11 17
-26 21 -108 12 -231 -28 -477 1 -333 40 49 13 77 35 77 60 0 20 29 40 45 32 5
-3 17 -12 26 -19z m1243 -63 c27 -6 54 -15 60 -20 6 -5 38 -12 71 -15 33 -4
77 -16 98 -27 21 -10 47 -19 59 -19 32 0 151 -31 163 -42 12 -12 -292 -1 -374
13 -30 5 -78 9 -107 9 -29 0 -65 5 -79 10 -23 9 -25 13 -15 25 18 22 4 31 -30
18 -24 -9 -32 -8 -45 7 -47 52 50 73 199 41z m-450 -222 c16 -14 -4 -57 -48
-103 -39 -39 -43 -49 -37 -73 5 -20 17 -31 42 -40 19 -7 26 -12 15 -12 -19 -1
-86 -65 -86 -82 0 -6 14 -22 31 -36 24 -20 29 -31 24 -50 -4 -19 -1 -26 15
-30 58 -15 -8 -39 -135 -48 -144 -10 -152 1 -75 102 53 70 62 106 31 123 -28
15 -91 12 -125 -5 -15 -8 -30 -15 -32 -15 -1 0 -15 15 -29 34 -28 37 -26 58
11 74 14 7 24 20 24 33 0 12 8 23 19 26 13 3 21 17 25 44 3 22 15 48 26 59 19
19 29 20 158 14 75 -4 141 -10 146 -15z m-408 -24 c6 -16 -22 -58 -74 -111
-23 -24 -32 -40 -27 -53 7 -25 1 -28 -66 -37 l-54 -7 45 38 c25 20 46 41 48
45 5 14 -19 23 -31 11 -27 -27 -87 2 -87 43 0 12 -9 32 -20 46 -11 14 -20 28
-20 33 0 4 63 7 140 7 115 0 142 -3 146 -15z m-156 -290 c4 -24 14 -32 50 -45
25 -9 58 -28 73 -42 26 -25 27 -27 10 -36 -23 -12 -244 -26 -273 -17 -27 9
-19 37 24 80 17 18 43 47 58 65 32 37 51 35 58 -5z m5150 -543 c0 -29 -161
-122 -210 -122 -32 0 -48 -15 -25 -24 23 -9 18 -28 -7 -24 -27 4 -39 48 -14
48 9 0 16 6 16 14 0 17 68 76 87 76 7 0 18 9 25 20 10 16 24 20 70 20 32 0 58
-4 58 -8z m-5256 -365 c-1 -53 -5 -101 -9 -107 -4 -6 -4 -23 0 -39 4 -17 2
-32 -5 -36 -8 -5 -5 -11 7 -20 33 -24 4 -28 -78 -12 -45 9 -83 18 -85 20 -5 5
29 91 38 95 5 2 8 9 8 17 0 7 7 18 15 25 7 6 17 32 21 56 8 54 63 130 79 109
6 -7 10 -55 9 -108z m693 71 c2 -29 4 -105 5 -168 l3 -115 -29 -3 c-47 -6
-116 18 -116 39 0 9 14 51 30 93 17 41 33 89 36 105 4 17 20 46 38 66 17 19
31 35 31 35 0 0 1 -24 2 -52z m526 -126 c3 -61 1 -115 -4 -118 -10 -6 -7 -53
4 -71 16 -26 -39 -27 -125 -1 -48 14 -48 16 -4 93 9 17 25 48 35 70 10 22 30
51 44 64 14 13 29 37 32 53 4 16 8 28 10 26 1 -2 5 -54 8 -116z m-1722 51 c6
-120 7 -214 2 -232 -4 -18 -13 -21 -54 -21 -57 0 -99 17 -99 39 0 9 16 41 35
71 19 30 35 58 35 64 0 13 63 105 73 106 4 0 8 -12 8 -27z m-1087 -139 c9 -3
16 -15 16 -26 0 -11 9 -31 20 -45 22 -28 15 -47 -21 -58 -10 -4 -22 -17 -25
-31 -7 -27 -17 -30 -114 -39 -64 -6 -66 -5 -108 30 -55 48 -56 76 -1 133 l41
42 88 0 c49 0 95 -3 104 -6z m4042 -76 c37 -22 42 -39 18 -58 -8 -8 -21 -28
-29 -47 l-14 -33 -90 0 c-97 0 -113 8 -146 71 -12 22 -12 29 1 48 8 11 22 21
30 21 8 0 19 11 24 25 9 24 13 25 57 20 27 -3 62 -2 78 3 25 7 30 6 33 -10 2
-11 19 -29 38 -40z m-7716 -24 c27 -14 41 -15 79 -6 25 6 49 8 53 6 16 -10 7
-42 -18 -68 -40 -39 -134 -36 -134 5 0 12 -9 21 -25 25 -15 4 -25 13 -25 23 0
35 20 39 70 15z m11693 -557 c20 -7 34 -16 31 -20 -4 -4 10 -14 30 -22 62 -26
40 -40 -58 -37 -48 1 -106 6 -128 11 -23 6 -46 7 -50 5 -14 -9 -139 -11 -144
-2 -3 4 0 8 6 8 6 0 46 13 88 29 138 52 155 54 225 28z m-11124 -271 c6 -7 22
-11 35 -9 18 4 29 -2 41 -20 9 -14 30 -30 46 -36 30 -10 37 -25 18 -36 -9 -6
-221 -34 -261 -35 -11 0 -15 5 -12 14 3 8 -3 19 -16 26 -29 15 -16 30 28 30
55 0 71 14 40 34 -38 25 -82 30 -97 12 -18 -22 -81 -19 -81 4 0 29 236 43 259
16z m1564 -30 c12 -8 39 -17 59 -20 21 -4 50 -17 66 -31 15 -13 51 -31 79 -40
67 -22 91 -49 109 -126 8 -34 19 -68 24 -74 12 -14 3 -25 -22 -25 -10 0 -28
-15 -39 -32 -12 -18 -35 -43 -50 -56 -46 -37 -36 -1 11 44 22 21 40 42 40 46
0 5 -19 17 -42 27 -42 18 -44 21 -71 108 l-28 90 -84 43 c-47 23 -85 46 -85
51 0 12 7 11 33 -5z m-1119 -27 c16 -13 25 -27 22 -36 -5 -12 0 -13 24 -8 39
9 38 0 -2 -21 -17 -9 -39 -24 -47 -34 -21 -24 -120 -90 -135 -90 -6 0 -20 14
-29 30 -10 17 -25 30 -33 30 -8 0 -17 6 -20 14 -3 8 -14 16 -24 19 -10 2 -23
15 -30 27 -11 21 -10 22 11 17 32 -7 100 17 75 26 -13 5 -15 11 -6 27 9 17 21
20 89 20 65 0 83 -4 105 -21z m8863 -148 c21 -11 55 -22 76 -26 33 -5 36 -8
27 -25 -6 -11 -22 -27 -35 -36 -22 -14 -27 -14 -55 -1 -17 9 -66 19 -110 23
-82 7 -104 19 -98 51 9 46 120 54 195 14z m92 -410 c11 -7 11 -19 2 -67 -8
-43 -40 -214 -51 -271 0 -1 -16 -7 -37 -14 -39 -12 -204 -14 -436 -3 -165 8
-175 20 -56 68 81 33 249 127 268 150 6 8 27 17 46 20 19 4 35 12 35 19 0 15
60 57 81 57 8 0 21 6 27 13 7 6 32 17 55 24 54 14 50 14 66 4z m-7965 -176
c20 -11 43 -13 78 -9 39 5 52 3 68 -11 32 -29 20 -75 -19 -75 -9 0 -36 -14
-61 -31 -49 -33 -216 -115 -255 -125 -24 -6 -150 29 -169 47 -6 5 -17 9 -25 9
-9 0 -33 5 -55 11 -33 9 -36 13 -25 24 8 8 37 22 64 32 41 15 62 17 118 9 58
-7 74 -6 115 12 26 11 65 23 87 27 94 16 126 62 34 50 -51 -7 -109 1 -109 15
0 27 110 38 154 15z m8415 -249 c50 -10 81 -23 98 -40 14 -14 33 -28 43 -31
10 -3 21 -13 24 -21 5 -12 -1 -14 -32 -8 -55 10 -82 22 -88 38 -7 17 -69 40
-83 31 -6 -3 -8 -12 -5 -19 4 -10 -15 -18 -73 -31 -43 -9 -97 -25 -121 -36
-23 -10 -58 -19 -78 -19 -31 0 -35 3 -29 20 5 17 2 20 -23 20 -36 0 -71 35
-54 52 7 7 12 20 12 29 0 15 15 18 98 24 53 3 104 7 112 9 33 6 129 -3 199
-18z m-8364 -87 c63 -6 101 -7 112 0 13 7 27 4 53 -11 51 -31 55 -35 40 -53
-11 -13 -10 -18 6 -30 18 -15 18 -16 -16 -45 -25 -22 -44 -30 -72 -30 -21 0
-38 -4 -38 -10 0 -5 -9 -14 -21 -20 -16 -9 -26 -8 -46 5 -30 20 -159 65 -185
65 -20 0 -26 20 -5 20 7 0 4 7 -7 15 -27 21 -72 19 -93 -4 -21 -21 -129 -37
-153 -21 -22 14 25 60 61 60 19 0 27 4 23 13 -10 27 48 41 229 56 10 0 60 -4
112 -10z m2393 -367 c19 -13 5 -37 -31 -55 l-32 -16 61 0 c33 -1 85 -5 115
-11 49 -9 380 -32 454 -31 17 0 49 3 73 7 35 5 42 3 42 -10 0 -9 -4 -16 -9
-16 -4 0 -28 -16 -52 -35 -38 -30 -52 -35 -96 -35 -52 0 -265 26 -457 55 -55
8 -121 15 -147 15 -36 0 -53 5 -68 21 -19 20 -23 21 -68 9 -26 -7 -67 -19 -89
-27 -23 -8 -50 -13 -60 -11 -13 3 7 17 60 41 43 20 83 37 89 37 5 0 15 7 21
16 25 34 162 66 194 46z m974 -34 c-2 -22 4 -48 13 -62 17 -26 13 -66 -7 -66
-6 0 -25 9 -43 20 -18 11 -56 25 -85 30 -30 6 -56 12 -58 15 -10 9 30 44 58
50 15 3 38 17 51 31 15 16 32 24 49 22 22 -3 25 -7 22 -40z m560 2 c12 -16 29
-32 39 -35 9 -3 29 -17 45 -31 25 -22 35 -24 76 -19 31 4 59 1 82 -9 26 -11
85 -15 241 -15 169 -1 209 -4 222 -16 8 -8 27 -15 43 -15 16 0 31 -4 34 -9 8
-12 -72 -23 -319 -42 -135 -10 -157 -10 -210 6 -33 9 -65 25 -72 35 -18 25
-85 48 -166 55 -73 7 -90 21 -69 56 7 10 12 30 12 44 0 33 15 32 42 -5z m366
-322 c74 -8 102 -8 134 3 32 10 49 10 91 0 29 -7 102 -16 162 -21 61 -5 160
-22 220 -37 91 -23 110 -31 110 -47 0 -10 -11 -27 -25 -38 -33 -24 -112 -16
-108 11 2 11 -6 17 -27 18 -16 2 -59 7 -95 13 -36 5 -117 15 -180 21 -63 6
-126 16 -140 21 -14 6 -66 10 -116 9 -84 -2 -106 1 -214 36 -12 4 -11 7 5 19
13 10 31 13 55 9 19 -3 77 -11 128 -17z m-1793 -2 c22 1 121 5 220 9 110 4
194 4 215 -2 l35 -10 -45 -7 c-25 -3 -151 -11 -280 -17 -295 -13 -363 -19
-373 -29 -5 -4 5 -11 22 -15 41 -9 48 -23 23 -48 -20 -19 -22 -19 -47 -3 -14
9 -28 25 -31 34 -3 9 -10 25 -15 34 -7 13 -4 20 13 29 30 16 178 38 203 30 11
-3 38 -5 60 -5z"/>
<path d="M9436 5479 c-30 -35 -36 -93 -10 -103 9 -3 35 -6 59 -6 45 0 75 19
75 47 0 15 -77 93 -92 93 -3 0 -18 -14 -32 -31z"/>
<path d="M13842 9128 c-41 -57 -82 -131 -82 -151 -1 -7 -9 -30 -20 -52 -19
-41 -14 -62 14 -52 8 3 24 25 35 49 11 24 26 54 34 68 24 41 77 157 77 168 0
29 -23 17 -58 -30z"/>
<path d="M12913 8663 c-7 -2 -13 -20 -13 -38 0 -25 -5 -35 -20 -40 -28 -9 -25
-28 3 -21 14 3 38 -3 61 -15 21 -11 50 -19 65 -17 21 2 25 7 22 28 -5 36 -38
97 -56 104 -19 7 -44 7 -62 -1z"/>
<path d="M13860 7979 c0 -37 19 -59 50 -59 47 0 35 -17 -15 -22 -25 -3 -57
-14 -72 -24 l-28 -19 29 -3 c15 -2 40 2 55 8 24 9 35 7 76 -14 55 -29 83 -33
91 -11 11 29 -6 63 -58 114 -44 43 -58 51 -90 51 -32 0 -38 -3 -38 -21z"/>
<path d="M15157 5693 c-4 -3 -7 -30 -7 -58 0 -60 -11 -73 -64 -82 -33 -5 -40
-2 -76 36 -29 32 -48 44 -78 48 -50 7 -58 -6 -32 -54 59 -108 73 -129 93 -146
29 -23 77 -47 94 -47 22 0 20 50 -4 86 -21 32 -11 42 51 49 45 6 59 4 83 -13
40 -28 121 -48 135 -34 18 18 13 94 -10 139 -32 61 -65 83 -127 83 -28 0 -55
-3 -58 -7z"/>
<path d="M3789 5155 c-1 -3 -2 -10 -3 -15 0 -6 -8 -15 -16 -20 -18 -11 -191
-5 -304 11 -120 18 -314 -6 -220 -26 16 -4 35 -9 43 -11 8 -3 82 -9 166 -15
188 -12 206 -17 218 -55 14 -42 42 -69 93 -89 56 -21 83 -14 109 28 26 42 61
48 75 13 12 -34 57 -37 62 -5 5 33 33 47 60 29 13 -8 50 -18 83 -22 33 -4 74
-10 92 -13 21 -5 39 -2 53 8 20 14 19 15 -23 31 -23 9 -50 16 -59 16 -9 0 -23
6 -30 14 -8 7 -34 16 -59 19 -89 11 -107 18 -113 43 -5 17 -16 25 -44 30 -20
4 -49 13 -64 20 -25 13 -117 20 -119 9z"/>
<path d="M4043 4943 c-7 -3 -13 -16 -13 -29 0 -22 -4 -24 -42 -24 -92 0 -150
-78 -68 -90 35 -5 35 -6 13 -20 -39 -25 -26 -33 40 -25 34 5 121 9 192 10 72
1 138 2 148 3 33 4 16 31 -47 77 -35 25 -69 52 -76 60 -16 20 -123 47 -147 38z"/>
<path d="M14081 3030 c-13 -6 -36 -19 -52 -31 -21 -15 -37 -19 -58 -14 -26 6
-38 -1 -106 -66 -94 -90 -89 -101 32 -70 132 35 162 40 233 41 59 1 63 2 46
15 -11 8 -34 15 -51 15 -17 0 -40 7 -51 15 -19 15 -19 15 0 30 11 8 26 15 33
15 8 0 30 -7 50 -15 51 -22 88 -19 139 11 67 39 59 54 -30 54 -40 0 -93 2
-117 5 -24 3 -55 0 -68 -5z"/>
<path d="M4235 2918 c-49 -11 -121 -23 -160 -28 -102 -13 -123 -19 -104 -30
14 -8 43 -5 194 20 28 5 76 9 108 9 51 1 60 -2 64 -19 3 -11 10 -20 17 -20 6
0 22 -6 36 -13 15 -8 48 -17 74 -20 44 -6 51 -4 73 19 29 32 23 43 -12 20 -38
-25 -68 -13 -60 24 5 25 2 31 -24 44 -39 21 -94 19 -206 -6z"/>
<path d="M7494 1300 c-7 -33 -27 -38 -58 -15 -23 18 -66 20 -66 4 0 -7 9 -27
21 -45 24 -40 53 -44 79 -11 17 20 21 21 52 9 62 -26 65 -25 81 8 15 30 15 31
-6 39 -13 5 -29 16 -36 25 -7 9 -24 16 -37 16 -19 0 -26 -7 -30 -30z"/>
<path d="M12021 1261 c-18 -11 -10 -81 14 -117 19 -30 57 -49 80 -40 9 3 22
19 28 35 7 20 20 31 39 35 41 8 34 26 -9 26 -32 1 -41 6 -58 33 -21 33 -65 47
-94 28z"/>
<path d="M9770 941 c0 -29 -28 -52 -55 -45 -18 4 -27 0 -41 -21 -11 -17 -14
-29 -7 -36 14 -14 40 -1 46 22 3 10 11 19 17 19 9 0 11 -18 7 -66 -4 -51 -2
-67 9 -71 17 -6 54 24 54 43 0 7 11 26 25 42 22 26 25 36 19 74 -8 47 -17 58
-51 58 -16 0 -23 -6 -23 -19z"/>
<path d="M10035 910 c-14 -16 -31 -20 -80 -20 -39 0 -68 -5 -81 -15 -18 -15
-18 -15 -1 -29 46 -35 282 -49 282 -16 0 8 -17 24 -37 35 -21 11 -39 28 -40
39 -4 27 -21 30 -43 6z"/>
<path d="M14206 794 c-3 -8 -3 -26 0 -40 5 -19 1 -26 -20 -35 -29 -13 -50 -6
-97 32 -19 15 -32 19 -43 12 -14 -8 -14 -12 3 -43 11 -19 24 -45 30 -57 12
-26 45 -46 69 -41 11 2 16 14 16 38 1 30 5 35 28 38 15 2 40 -4 57 -12 39 -20
90 -21 97 -1 19 48 -43 125 -99 125 -23 0 -37 -6 -41 -16z"/>
</g>
</svg>
